<?xml version="1.0" encoding="UTF-8"?>
<svg id="Layer_1" data-name="Layer 1" xmlns="http://www.w3.org/2000/svg" viewBox="0 0 311.7 311.75">
  <defs>
    <style>
      .cls-1 {
        fill: none;
      }

      .cls-2 {
        fill: #fff;
      }

      .cls-3 {
        fill: #a5d9d2;
      }

      .cls-4 {
        fill: #f6976a;
      }

      .cls-5 {
        fill: #fcdb70;
      }
    </style>
  </defs>
  <path class="cls-1" d="M52,148.25c.74-5.87.88-11.97.63-18.1,0,.01.01.03.02.04-2.72-13.51-2.04-25.55,1.66-36.42-17.23,24.93-24.35,56.22-21.79,79.86.27,2.45.63,4.84,1.05,7.2,1.99-1.06,3.87-2.34,5.63-3.88,3.5-3.06,6.42-7.27,8.56-12.23,2.15-4.96,3.51-10.61,4.25-16.47Z"/>
  <path class="cls-1" d="M251.58,182.56c9.38-6.73,16.18-20.26,9.24-31.62-10.87-17.79-22.97-13.82-14.55-34.32,0,0-17.8,7.97-24.53,22.29-5.59,11.9-.96,19.74,2.96,27.5,6.45,12.79-8.54,22.8-12.66,22.8,4.94,0,27.16,2.25,39.55-6.64Z"/>
  <path class="cls-1" d="M59.75,152.58c.89,4.74,1.37,9.68,1.19,14.82-.24,6.85-1.74,14.15-5.14,21.03-3.37,6.87-8.54,13.08-14.52,18.01h0c5.11,11.76,11.74,21.89,18.51,30.29,5.67-7.85,23.54-37.13,5.16-73.04-1.94-3.79-3.66-7.49-5.19-11.09Z"/>
  <path class="cls-1" d="M49.22,234.83c-1.39-1.96-2.85-4.13-4.35-6.47,1.39,2.2,2.84,4.36,4.35,6.47Z"/>
  <path class="cls-1" d="M281.16,211.59c-.18.39-.35.78-.53,1.17.18-.39.36-.78.53-1.17Z"/>
  <path class="cls-1" d="M207.41,153.85c-3.65-21.89-4.31-27.77-1.3-37.01.93-2.84,1.93-5.31,3.2-7.71,1-1.89,1.81-3.45,2.93-5.15.76-1.16,1.96-3.02,3.72-5.3.99-1.28,1.66-2.05,2.51-3.05,1.39-1.64,3.39-4.05,5.83-7.2,1.62-1.56,2.92-3.17,3.96-4.76,10.4-15.77,1.25-37.43-.79-42.01,8.9,5.79,15.73,11.42,20.61,15.85,4.69,4.26,8.14,7.91,10.3,10.3,4.23,4.68,6.79,7.46,9.51,11.89,2.2,3.57,4.66,7.65,5.55,13.47.27,1.75.66,4.49,0,7.93-.63,3.26-1.93,5.67-3.17,7.93-2.59,4.71-3.92,4.78-4.76,7.93-.3,1.11-1.04,4.05-.03,7.48,1.49,5.08,5.74,7.55,6.81,8.13,0,0,.81-.86-.38-4.46-1.19-3.59-1.47-7.12.97-12.33,2.43-5.22,8.73-5.53,8.73-5.53-.2.64-.47,1.61-.61,2.8-.75,6.08,2.48,10.07,5.92,17.38,2.46,5.25,4.11,8.74,4.76,13.47.92,6.69-.67,12.07-1.59,15.06-2.89,9.45-8.41,15.35-12.68,19.81-2.87,3-9.36,9.72-19.81,14.27-3.6,1.57-10.7,4.21-30.12,4.76-9.52.27-22.66.05-38.38-2.06,8.08-6.47,21.76-21.28,18.32-41.89Z"/>
  <path class="cls-4" d="M227.47,197.8c19.42-.55,26.52-3.19,30.12-4.76,10.46-4.55,16.94-11.26,19.81-14.27,4.27-4.47,9.79-10.37,12.68-19.81.92-2.99,2.5-8.37,1.59-15.06-.65-4.73-2.29-8.23-4.76-13.47-3.44-7.31-6.67-11.3-5.92-17.38.15-1.19.41-2.16.61-2.8,0,0-6.3.31-8.73,5.53-2.44,5.21-2.16,8.73-.97,12.33,1.19,3.59.38,4.46.38,4.46-1.07-.58-5.32-3.05-6.81-8.13-1.01-3.43-.27-6.36.03-7.48.84-3.14,2.17-3.22,4.76-7.93,1.24-2.26,2.54-4.66,3.17-7.93.66-3.44.27-6.18,0-7.93-.89-5.83-3.35-9.9-5.55-13.47-2.73-4.42-5.28-7.21-9.51-11.89-2.16-2.39-5.61-6.05-10.3-10.3-4.88-4.43-11.71-10.06-20.61-15.85,2.04,4.58,11.19,26.23.79,42.01-1.04,1.58-2.34,3.19-3.96,4.76-2.45,3.15-4.44,5.57-5.83,7.2-.85,1-1.52,1.77-2.51,3.05-1.76,2.28-2.95,4.14-3.72,5.3-1.12,1.71-1.94,3.27-2.93,5.15-1.27,2.4-2.27,4.88-3.2,7.71-3.02,9.24-2.35,15.12,1.3,37.01,3.44,20.61-10.24,35.42-18.32,41.89,15.72,2.11,28.86,2.33,38.38,2.06ZM224.69,166.4c-3.91-7.75-8.55-15.59-2.96-27.5,6.73-14.31,24.53-22.29,24.53-22.29-8.42,20.5,3.68,16.54,14.55,34.32,6.94,11.35.14,24.89-9.24,31.62-12.4,8.89-34.61,6.64-39.55,6.64,4.12,0,19.12-10,12.66-22.8Z"/>
  <path class="cls-4" d="M139.75,48.55c15.24,10.07,20.83,24.98,22.54,30.28,3.37-4.07,16.44-24.27,8.6-36.9-5.25-8.45-15.58-11.74-24.16-12.49,10.87-.74,23.42.14,31.93,6.18.88.63,1.67,1.15,2.4,1.6,5.57,4.81,9.51,11.03,10.81,18.61,3.57,20.88-34.29,37.02-7.96,58.76,8.88,6.9,15.55,4.91,15.55,4.91-12.42-16.41,13.67-30.54,21.49-44.55,1.47-2.64,5.49-14.56.7-25.99-5.24-12.51-19.07-18.82-27.01-21.56-11.5-3.21-23.61-4.94-36.12-4.94-26.68,0-51.56,7.82-72.48,21.28,8.23-2.92,32.21-9.4,53.72,4.81Z"/>
  <path class="cls-5" d="M267.25,199.46c-19.93,12.85-47.35,9.07-64.23,6.97-1.86-.23-3.7-.47-5.37-.69,4.61,2.94,6.12,4.91,11.6,7.91,6.13,3.36,11.53,4.88,14.27,5.55,6.61,1.6,12.09,1.67,15.06,1.59,4.22-.13,11.12-.4,19.02-3.96,3.16-1.42,8.05-4.08,12.98-8.94-2.12,3.63-7.36,11.42-17.54,16.8-1.49.79-14.28,7.43-29.64,4.64-7.07-1.28-13.64-4.38-15.73-5.37-3.26-1.55-4-2.22-10.3-5.55-1.16-.61-2.09-1.09-2.96-1.54-1.73-.88-3-1.53-4.51-2.28,0,0,0,0-.02,0-2.15-1.06-3.88-1.89-4.72-2.29-.17-.08-.31-.15-.39-.19-.05-.02-.08-.04-.08-.04-.71-.34-15.2-10.32-29.32-11.89-2.16-.24-4.45-.29-6.43-.27-1.93.14-3.08.27-3.08.27-3.18.32-10.17,1.22-17.44,3.96-2.48.94-6.85,2.62-11.77,6.05-.08.05-.32.23-.64.45-1.76,1.26-6.35,4.72-9.81,9.11-12.07,15.31-9.76,33.24-9.49,35.11,2.46,16.92,14.06,28.27,15.06,27.74.63-.34-1.91-4.54-3.08-13.13-1.04-7.6-.27-13.34-.09-14.61,1.22-8.58,4.44-14.67,5.55-16.64,1.82-3.26,5.64-9.89,13.47-15.06,6.65-4.39,12.84-5.51,17.44-6.34,3.41-.62,10.76-1.88,19.81,0,5.56,1.15,9.43,2.96,16.12,6.22,5.99,2.92,7.86,4.31,13.21,7.25,9.04,4.97,17.1,9.28,27.74,11.89,8.94,2.19,15.03,2.17,19.81,1.59,2.46-.3,8.68-1.26,15.85-4.76,6.76-3.29,11.44-7.41,14.27-10.3,2.76-4.31,5.79-9.58,8.69-15.76.03-.06.06-.12.09-.19.18-.38.36-.78.53-1.17,6.58-14.68,10.61-30.75,11.5-47.64-3.65,11.02-10.78,26.07-25.42,35.51Z"/>
  <path class="cls-5" d="M225.88,251.69c-2.43-.27-11.49-1.38-23.78-6.34-6.29-2.54-8.39-4.01-14.16-6.95,0,0-4.79-2.55-10.41-4.94-6.99-2.97-11.84-5.03-18.23-5.55-2.8-.23-9.25-.67-16.64,2.38-2.79,1.15-8.92,4.13-13.86,10.57,5.28-2.27,10.67-2.56,12.27-2.64,0,0,12.06-.63,22.98,6.34,3.28,2.09,9.93,7.39,10.7,8.07.06.05.57.51,1.29,1.11.19.16.41.34.69.57,4.48,3.61,8.73,5.76,11.52,6.97,5.53,2.41,10.28,3.29,12.81,3.65,3.47.5,9.77,1.35,17.08-.55,7.92-2.06,12.36-6.13,12.6-5.78.3.44-6.96,8.24-17.74,11.9-12.22,4.15-23.4,1.07-29.12-.57-19.07-5.5-23.94-16.66-38.84-15.85-6.72.37-11.04,2.89-12.39,3.77-.06.04-.16.1-.29.19-.92.62-6.54,4.52-8.95,10.93,1.02,3.24,2.4,5.73,3.4,7.3.91,1.42,2.93,4.32,6.34,7.13.81.67,3.54,2.85,7.93,4.76,3.41,1.48,6.69,2.3,10.02,2.78,2.46.13,4.93.21,7.42.21,40.81,0,77.43-18.3,102.08-47.12-4.23,2.88-10.6,6.3-18.87,7.67-6.32,1.05-11.3.5-15.85,0Z"/>
  <path class="cls-2" d="M280.63,212.76c-.03.06-.06.12-.09.19.03-.06.06-.12.09-.19Z"/>
  <path class="cls-3" d="M87.18,258.03c-.67-3.75-.75-6.64-.79-8.72-.06-2.89-.15-6.9.79-11.89.37-1.95,1.14-5.82,3.17-10.24,1.54-4.1,3.77-8.35,6.98-12.43,2.02-2.56,4.41-4.81,6.44-6.53-.09-1.66-.3-3.57-.73-5.67-1.47-7.25-4.59-12.29-7.93-17.44-5.64-8.71-8.4-13.11-12.67-18.66-13.4-17.4-15.91-52.56,0-68.9,11.18-11.48,29.34-12.22,41-1.25,7.84,7.38,10.67,17.55,8.37,26.97-.59,1.94-3.9,11.58-12.02,14.1-6.36,1.98-14.95,0-16.62-4.6,5.01-1.83,8.59-6.63,8.59-12.27s-3.91-10.88-9.27-12.51c-1.25-.43-2.59-.67-3.99-.67-3.45,0-6.56,1.42-8.8,3.69-1.04.98-1.9,2.14-2.58,3.41h-.02c-.04.07-.06.15-.1.23-.5.99-.89,2.05-1.12,3.17-.31,1.18-.53,2.39-.64,3.61-.36,3.98.45,7.88,2.27,11.38,3.7,8.43,12.6,11.59,20.26,12.44.03,0,.06.01.09.01-8.07,15.91-11.48,37.99,6.85,55.69,2.33-1.15,4.32-1.92,5.71-2.45,5.03-1.9,9.94-2.95,13.63-3.53-12.35-3.25-30.63-13.75-21.1-49.24,3.37-.08,8.4-.89,14.49-4.01.08-.04.16-.09.24-.13,5.24-2.42,10.08-5.84,13.97-9.97,4.16-4.42,12.48-15.67,13.09-31.34.65-16.82-7.71-28.88-12.06-34.07-11.02-13.14-25.11-16.5-29.32-17.44-2.8-.62-12.26-2.49-23.78,0-3.01.65-8.75,1.89-15.06,5.55-3.42,1.98-6.26,4.23-7.93,5.55-3.17,2.51-5.36,4.62-7.13,6.34,0,0-.21.2-.57.56-21.55,23.84-34.7,55.42-34.7,90.01,0,26.29,7.59,50.83,20.7,71.56,1.5,2.34,2.97,4.51,4.35,6.47,11.68,16.31,26.91,29.9,44.55,39.65-1.41-2.58-2.81-5.15-4.22-7.73-.82-2.2-1.74-5.16-2.38-8.72ZM39.19,176.95c-1.76,1.54-3.64,2.82-5.63,3.88-.42-2.36-.78-4.75-1.05-7.2-2.57-23.64,4.56-54.94,21.79-79.86-3.7,10.87-4.38,22.92-1.66,36.42,0-.01-.01-.03-.02-.04.26,6.13.12,12.23-.63,18.1-.74,5.86-2.1,11.51-4.25,16.47-2.14,4.96-5.06,9.17-8.56,12.23ZM59.78,236.72c-6.76-8.4-13.4-18.53-18.51-30.3h0c5.98-4.91,11.15-11.12,14.52-17.99,3.4-6.87,4.9-14.18,5.14-21.03.18-5.14-.3-10.07-1.19-14.82,1.52,3.61,3.25,7.3,5.19,11.09,18.39,35.92.51,65.2-5.16,73.04Z"/>
</svg>